<svg xmlns="http://www.w3.org/2000/svg" viewBox="0 0 680.9 117.9" style="">
    <defs>
        <style>
            .cls-1 {
                fill: none;
                stroke: #cb005a;
                stroke-miterlimit: 10;
                stroke-width: 3px;
            }

        </style>
    </defs>
    <g id="layer2" data-name="layer2">
        <g id="layer2-2" data-name="layer2">
            <path class="cls-1 QWfqBTWJ_0" d="M75.7,100.2a5.4,5.4,0,0,1-.9,3.5c-3.3,5.2-8,11.4-14.6,12.6a11.1,11.1,0,0,1-7-1.3c-.5-.4-6.7-5-6.7-5.4H47l-.6-.4c.3.4-1.2-.6-1.4-.7a10,10,0,0,1-2.3-2.3,31.1,31.1,0,0,0-4-4.1c-.5-.5-6.1-7-5.2-7.8s.4.6.7.4l-1.6-1.9v.2c-.2.4-7.1-10.7-7.8-11.7s-2.9-4-3.4-6.2a.6.6,0,0,1,.3-.9,1.8,1.8,0,0,0-.9-1l-2.1-4.1c-1.1,3.4-1.2,6.8-2.4,10.2-1.5,5-2.7,10-3.9,14.9L11,100.4c-.3,1.5-.2,4-1,5.4-1.7,3.1-5.4-1.4-6.6-3.2-3.5-4.7-1.3-10.2,0-15.2A124.4,124.4,0,0,1,7.3,74.2C8.6,70.8,9,67.4,9.9,63.9c2.5-8.9,5.8-17.8,8.6-26.7s5.3-15.8,8.6-23.7a37.8,37.8,0,0,1,2-4.8l.8-2a1.1,1.1,0,0,1-.2-.5c1.5-2.7,6-1.4,8,.1,4.1,2.9.6,5.4-.8,8.7-.5,1.2-.3,2-.6,3.4s-2,5-2.8,7.3-2.5,6.6-3.7,10L27.7,41a17.8,17.8,0,0,0-1.4,5.5c-.7,3.6-2.8,7-3.8,10.7A145.1,145.1,0,0,0,38.6,43.1C43.7,37.6,49.2,32.9,54,27S64.3,14.8,66.3,7.9c.4-1.2,0-2.6,1.8-2.3s4.5,5.3,4.9,7.5v.3c.9,5-1.7,8.8-5,12.7s-4.5,5.4-7.1,8.1-1.7,2.6-2.8,4a24,24,0,0,1-4,3.8c-2.7,2.4-5.1,5.1-7.8,7.4s-3.2,3.4-5,5.1A72.1,72.1,0,0,1,23.9,66.3a102.7,102.7,0,0,0,8.4,12.3c-1-1.4-2.8-4-4-6,3.7,4.9,12.2,15,13.1,16.2,3.1,2.8,6.1,5.5,9.1,8.4s4.4,4.7,6.6,6.1l-.6-.7a50.6,50.6,0,0,1,4.8,2,8.6,8.6,0,0,0,3.5.6c3.1-.3,6.6-2.9,8.3-5.2S75.3,97,75.7,100.2ZM14.8,58.7c-2.7,9.5-5.8,19.2-8,28.7,1.1-3.7,2.6-7.3,3.8-11.1s2.3-9.8,3.5-14.7a.4.4,0,0,1,.1-.3ZM26.4,70l.6,1A2.9,2.9,0,0,1,26.4,70Zm.7,1.3.5.6Zm8.2,11.1a31.1,31.1,0,0,0,2.9,3.3l-2-2.4Z"></path>
            <path class="cls-1 QWfqBTWJ_1" d="M110.1,69.3l-3.6,4.8-6.3,8.2c-1.7,2.1-3.7,4.1-5.3,6.2s-3.3,4.9-5.3,7.1a31.3,31.3,0,0,1-7.4,6.1,7.4,7.4,0,0,1-6,.6,15.3,15.3,0,0,1-7.8-5.1A4.8,4.8,0,0,1,67.2,95a8.5,8.5,0,0,1-.3-2.3c-.1-1.5.4-2.5.6-3.9s.9-3,1.2-4.5.7-3.2.9-4.7a20.8,20.8,0,0,1,.3-4.3c.2-1,.9-1.9,1.2-3a12.4,12.4,0,0,0-1,2c-.4,1-.6,1.9-.9,2.7s-.5,1.8-.9,2.7a11.9,11.9,0,0,0-1,3.2c-.1,1.1,0,2.1-.1,3.2a9.8,9.8,0,0,0-.5,2.9c0,.4.2,1.1.2,1.3s-.2,1.1-.2,1.6.2,2.2.3,3.3c-1.8-3.3-1.5-6.5-.9-10.1s1.1-6.9,1.9-10.3a48.4,48.4,0,0,1,9.1-19.3c3.7-4.8,8.5-8.4,14.8-7.2a10.2,10.2,0,0,1,6.5,3.5c1.6,2.2,1.5,5,.7,7.6-1.5,4.6-5.4,8.2-9,11.3a35.2,35.2,0,0,1-5,3.6A24.8,24.8,0,0,1,81.4,76l-2,.7c-.9.2-1,.1-1.3.8s-.3,2.4-.5,3.5-.6,3-.9,4.5-1.6,6.4-.9,9.4c1.3,6,11.2-3.3,13-4.9l3.3-3.3c.5-.7,1.2-1.3,1.7-2a4.1,4.1,0,0,0,.2-.9,75.2,75.2,0,0,1,5.1-6.4c2.1-2.5,4-5.1,6-7.8s3.5-5.8,5.4-2.7v.2c.1.1.1.1.1,0S110.7,68.6,110.1,69.3ZM80,72.1a34.1,34.1,0,0,0,9.8-7.9l2-2.6c.4-.5,1-.9,1.2-1.6s-.1-1.1,0-1.8l.5-2.4c.1-1.2-.4-4.3-2.2-3.9s-1.6,1.3-2.1,1.9l-2.1,2.8c-2.4,3.6-3.7,7.6-5.5,11.4v.3C80.9,69.5,80.5,70.8,80,72.1Z"></path>
            <path class="cls-1 QWfqBTWJ_2" d="M130.1,73.5c-2,2.9-3.9,5.8-6.1,8.6s-5.3,8.2-9.4,9.1c-.9.2-5.4-1-5.3-1.7h.2c-.9-.5,0,.6-1.4-.5a10.8,10.8,0,0,1-2.4-2.8c-1.3-1.8-3-3.3-3.4-5.4-.2-.6-.4-4.8.6-4.8s0,.6.1.6l.3-2.2c-.1.3-.1.4-.3.5s1.7-8.4,2-9.1c.9-2.5,1.4-5.3,3.7-6.7s4-1,6.2,0,3.7,1.5,3.7,2.7-.6.8-1,1.1h.5c.4.3-1.4,2.7-1.6,2.6s.1-.6.2-.9a60.5,60.5,0,0,0-5.5,11.8c.6-1.5,3.5-8.1,3.9-8s-7.8,14.3-3.8,16.2c1.9,1,5.1-1.9,6.3-3a52.3,52.3,0,0,0,7-6,1.2,1.2,0,0,1-.8.2c-.5-.5,5.4-8.3,6.4-9s2.5-1.1,2.7.5S131.3,72,130.1,73.5Zm-20,6.7-.2.9.2-.7h0C110.2,80.1,110.2,80.1,110.1,80.2Zm1.6-29c-.2-.4-.5-4,.8-3.4s1.4-2.1.7-.6a27.5,27.5,0,0,0,2.8-4.8l-1.4,2.1a42.6,42.6,0,0,0,2.8-7.3c0-.1-.2-1.2,0-1.4-2.5-.9-.7-2.3.4-3.2s-.4,0-.5-.2.9-.8,1.3-.9a6.6,6.6,0,0,1,5.3.4,8.8,8.8,0,0,1,2.9,4c.5,1.6-.7,3.3-1.8,4.3s-1.2.8-1.8,1.3-.6,1.8-1.2,2.7-1.1.8-1.4,1.4-.5.7-.1,1a6.2,6.2,0,0,0-1.2.8,12.4,12.4,0,0,1-3.3,4,11.4,11.4,0,0,0,3.3-3,8,8,0,0,1,3.4-2.6c-1.2,1.3-1.4,2.8-2.8,3.8s-.1-.9-1.7.5c0,0,.7-.1.4.2s-2.1,2.4-3.5,3-1.2.7-2,.4-.5-1-.7-1.3Zm.9-3.4a.1.1,0,0,1,.1.1v-.2Zm1.9-3.1-.5.7Z"></path>
            <path class="cls-1 QWfqBTWJ_3" d="M166.7,72.3l-1.6.4c-1.2.5-1,.3-1.8,1.4l-2.6,4.3c-.4.5-4.7,6.7-5.5,6.4s1-1.2.8-1.3l-3.4,4c.4-.4.6-.5.6-.4-.7,2-4.6,4.4-6.3,5.7a14.6,14.6,0,0,1-6.7,3,13,13,0,0,1-7.2-1.3c-6.9-3.4-11-12.8-7.3-19.9,2-3.8,3.5-8,6.3-11.8a23.9,23.9,0,0,1,5.6-5.4,10.9,10.9,0,0,1,3.2-1.7c.8-.5,2.6-.6,3.2-1.1s1.4-3.5,1.8-4.5,1.1-1.8,1.7-2.7a19.7,19.7,0,0,1,6.1-6.1c4-2.2,8,0,10.9,3,0,0,2,1.3,1.9,2l-.5-.5.5.9v.2c-.4-1,1.1.8,1.1.8a10.8,10.8,0,0,1,1.1,3,12.5,12.5,0,0,1,0,5.1,66.1,66.1,0,0,1-3,13c3.5-.6,7-1.4,10.4-2.1.8-.2,1.7-.8,2.3,0s0,.1,0,.1C181.8,71.2,168,72.1,166.7,72.3Zm-11,.4c-5.2-.7-11.5-2.9-12.8-8.8a39.3,39.3,0,0,0-4.2,7.3l.7-1.1c-.3,1.2-11.5,21.8-1.8,20.4h.1C145.9,89,152.3,79.5,155.7,72.7Zm5.6-26.4c-2.3-3.7-6.7,1.6-8.4,4a.1.1,0,0,0-.1.1l-.2.2h0c-.1.2-.2.3-.1.3a28.4,28.4,0,0,0-2,2.9c.1-.2,1.4-2.3,1.6-1.9s-1.9,4.4-2.3,5.2a21.8,21.8,0,0,0-1.5,5.7c-.2,2-.5,4.2,1.2,5.6a5.9,5.9,0,0,0,3.7,1.2,7.6,7.6,0,0,0,3,.1c1.1-.2.8.2,1.4-1,1.7-3,2.4-7.3,3.3-10.6S163.1,49.3,161.3,46.3Zm-8.4,4h-.1A.1.1,0,0,0,152.9,50.3Z"></path>
            <path class="cls-1 QWfqBTWJ_4" d="M214.1,86.9h0a46.6,46.6,0,0,0-.6,10.5l.3.7a4.9,4.9,0,0,1,.3,1.5c.7.3,1.2,2.3,1.8,2.9a6.2,6.2,0,0,0,3.8,1.6,14.5,14.5,0,0,0,3-.4c7.2-1.6,13.1-7.2,17.8-12.3a104.9,104.9,0,0,0,12.2-16.1c.5-.7,1.4-3.5,2.7-3.4s.8,4.2.7,5c-1.5,12-9.6,22.6-18.6,30.1-3,2.5-7,5.9-11.1,6.1s-7.3-1.8-10.1-3.5c-5.4-3.2-10.4-8.1-12.3-14.1-1.6-4.4-.6-9.1,0-13.5.1-.3-.3-2.5.2-3.1a20.2,20.2,0,0,0-.1,2.3,22.3,22.3,0,0,1,.3-2.7c-.2.2,0-1.7,0-1.8s.4-2,.6-3.1,1.2-4.3,1.9-6.5c1.4-4.5,3.3-8.8,4.7-13.4a69.8,69.8,0,0,1,5.3-11.9c.6-1,5.4-10.7,6.4-10.4a8.7,8.7,0,0,0-.7,1.7c1.2-2,2.4-4.1,3.7-6.1l-1.1,1.2c.5-1.5,2.4-3.5,3.3-4.8s1.8-2.7,2.7-4.1c2.1-3.1,4.5-6.1,6.9-9s8.4-8.6,13.6-8.9C261.3.9,266.8,11,266.9,19h0c0,4.3-1.1,9.1-3.9,12.3s-7.7,6.3-11.7,6.8c-1,.1-2.6.4-2.4-1s.4-.4.9-.8h-.2c.7-.2,4.5-8.9,5.3-8.8l-1.7,4a120.4,120.4,0,0,0,5.4-11.5c.8-2.4,2.4-6.5,1.4-8.9s-5.7-.8-7.5.3l-1.7.9.6-.2a5.7,5.7,0,0,0-1.4,1.1,5.9,5.9,0,0,1,2-1.2c1.5-1.1,5.2-3.3,7-1.9s1.1,2.9.5,4.6c.5-2.1.5-4.4-1.6-4.7s-3.8,1.4-5.4,1.9c-5.4,3.5-9.7,9.3-13.2,14.5a139.5,139.5,0,0,0-10.6,18.4c-3.3,6.6-5.7,13.6-8.3,20.6A124,124,0,0,0,214.2,86v.5c0,.2,0,.2-.1.3h.1C214.2,86.8,214.1,86.8,214.1,86.9ZM241.8,19a99.2,99.2,0,0,0-16.6,25.2,172.2,172.2,0,0,0-8.9,22.9,136.1,136.1,0,0,1,6.2-14.6c3.9-8,7.8-15.7,12.3-23.3A93.3,93.3,0,0,1,241.8,19Zm8.1-5.6a41.5,41.5,0,0,0-7.5,8.2c1.4-1.8,2.9-3.6,4.5-5.3S248.8,14.3,249.9,13.4Zm8.9,4.3a23.8,23.8,0,0,1,.7-2.9,15.3,15.3,0,0,1-.6,2.5A.8.8,0,0,1,258.8,17.7Z"></path>
            <path class="cls-1 QWfqBTWJ_5" d="M318.2,75.4a84.5,84.5,0,0,1-5.2,9.9,79.8,79.8,0,0,1-7,9.9c-2.1,2.7-5.1,6.1-8.6,6.7s-7.1-2.6-8.4-6.1c-2.8-6.9-.9-14.2,1.3-20.9,0,0,0-1,.1-1.9-1.2,1.8-2.8,3.9-3.9,5.6s-2.5,4.4-4,6.5-10.3,12.7-11.6,10.7c0,0,1.4-.6,1.3-.8a6.2,6.2,0,0,1-5,.7c.4.2.6.4.5.4-2.7.3-4.8-3.9-5.4-5.8a23.4,23.4,0,0,1-.1-10.2A55.6,55.6,0,0,1,270.3,60a20,20,0,0,1,3.6-4.1,26.9,26.9,0,0,1,2.9-1.6c1.7-1.6,3.2-2.9,5.8-2.9,5.8,0,8.1,6.6,9.3,11.1,2.8-3.7,7.9-8.5,12.2-3.2,2.4,2.8.8,4.9-.5,7.5a58.6,58.6,0,0,0-4.9,13.4c.1-.3.5-2.1,1-2.2s-7.6,26.3,4.5,11.4c3.7-4.6,6.8-9.4,10-14.2,1.4-2.3,2.8-4.6,4.4-6.9s2.8-3.1,2.9-.5S319.2,73.2,318.2,75.4Zm-29.8-8.7c0-.9-2.4-7.4-1.8-7.9a35.8,35.8,0,0,1,1.3,3.6c-.3-1.5-.8-5.8-2.9-5.8-3.9,0-6.8,7.2-8.1,9.9a64.5,64.5,0,0,0-5.4,16.6c.3-1.7,7.1-23,9.3-22.9-1.7.4-7.9,18.5-8.3,20.1s-2.1,7.1-.3,7.7,4-3.3,4.6-4.2q3.3-4,6.3-8.4l3.1-4.4a16.7,16.7,0,0,1,1.6-2.4A2.5,2.5,0,0,0,288.4,66.7Zm.3-.8v1.2A.8.8,0,0,0,288.7,65.9Zm2.9,5.6-.6.8a14.3,14.3,0,0,0-.5,2Z"></path>
            <path class="cls-1 QWfqBTWJ_6" d="M356.1,76.8c-2.5,3.3-4.9,6.8-7.7,9.9s-5.6,6-8.9,4.9c-.7-.2-5.1-2.6-5-3.2l.4.3-.7-.7c.6.9-.7-.3-.8-.3a10.7,10.7,0,0,1-1.5-2.2,10.7,10.7,0,0,1-.7-3.9c0-1.3.3-2.6.4-3.9a28,28,0,0,1,1.2-7.6c.2-.6,2.7-7.2,3.5-6.9s-.4.8-.2.9l1.6-3.3a1.7,1.7,0,0,1-.6.6,23.4,23.4,0,0,1,1.8-3.4c-2.4,2.7-4.3,5.5-6.4,8.3s-3.4,3.3-4.4,5.2c-2.5,4.2-5.5,8.1-7.5,12.5l-.5-1c-2.1,2.6-5.3-.4-6.5-2.4s-.7-3.3-.4-5.4a29.6,29.6,0,0,1,.7-5.8c.7-2.5,1.6-4.8,2.5-7.3s1.7-4.9,2.6-7.4,1.8-3.4,2.1-5,0-2.1,1.6-3.1a6.7,6.7,0,0,1,4.4-.5c1.9.4,5.3,2.4,3.3,5.3-.8,1.1-2.2,2.3-3.2,3.4s-.9,1.9-1.4,3.4-1.1,1.8-1.6,2.7a21.8,21.8,0,0,0-1.6,4.5,11.5,11.5,0,0,0-.3,2.6c-.2,2.5-1,4.9-1.3,7.4.1-.5,1-1.3,1.1-1.2s-1.2,2.1-1.1,2.1l7-10.1-2.7,3.4c-.4-.2,13.6-18.1,15.2-19.6,3.4-3.1,7.8-3,9.4,2.5s-4.2,9.7-7,14a46,46,0,0,0-4,7.6c-.8,1.5-2.6,4.9-2.8,7.5.2-1.7,1.5-3.9,2-5a15.7,15.7,0,0,1,4.1-6.3c-.9,1.6-1.8,3-2.5,4.4l.6-.7a27.2,27.2,0,0,1-1.2,4.2,16.4,16.4,0,0,0-1,4.5c-.2.1,0,2,0,2h.1l1-.4a17,17,0,0,0,5-3.4c2.8-2.2,5.5-4.7,8.2-7s4.6-3.8,6.2-5.8,2.4-2.9,2.9-.1S357.5,74.9,356.1,76.8Z"></path>
            <path class="cls-1 QWfqBTWJ_7" d="M395.4,72.3l-1.7.4c-1.2.5-.9.3-1.7,1.4a49.2,49.2,0,0,0-2.6,4.3c-.5.5-4.7,6.7-5.6,6.4s1-1.2.9-1.3l-3.4,4c.3-.4.6-.5.6-.4-.8,2-4.6,4.4-6.4,5.7a14.6,14.6,0,0,1-6.7,3,12.7,12.7,0,0,1-7.1-1.3c-7-3.4-11.1-12.8-7.3-19.9,2-3.8,3.4-8,6.2-11.8a23.9,23.9,0,0,1,5.6-5.4,12.3,12.3,0,0,1,3.2-1.7c.8-.5,2.6-.6,3.2-1.1s1.4-3.5,1.9-4.5a19.1,19.1,0,0,1,1.6-2.7,19.7,19.7,0,0,1,6.1-6.1c4-2.2,8,0,10.9,3,0,0,2,1.3,1.9,2l-.5-.5.5.9v.2c-.3-1,1.1.8,1.1.8a11.1,11.1,0,0,1,1.2,3,17.4,17.4,0,0,1,0,5.1,74.4,74.4,0,0,1-3.1,13c3.5-.6,7-1.4,10.5-2.1.8-.2,1.6-.8,2.2,0s0,.1,0,.1C410.4,71.2,396.6,72.1,395.4,72.3Zm-11.1.4c-5.1-.7-11.5-2.9-12.8-8.8a46.2,46.2,0,0,0-4.2,7.3l.7-1.1c-.2,1.2-11.5,21.8-1.8,20.4h.2C374.6,89,380.9,79.5,384.3,72.7ZM390,46.3c-2.4-3.7-6.7,1.6-8.5,4a.1.1,0,0,0-.1.1v.2h0c-.2.2-.3.3-.2.3s-1.2,1.6-1.9,2.9c.1-.2,1.4-2.3,1.5-1.9s-1.9,4.4-2.3,5.2a26.5,26.5,0,0,0-1.5,5.7c-.2,2-.5,4.2,1.2,5.6s2.5,1.1,3.8,1.2a7.1,7.1,0,0,0,2.9.1c1.2-.2.8.2,1.4-1,1.8-3,2.5-7.3,3.3-10.6S391.7,49.3,390,46.3Zm-8.5,4h-.1A.1.1,0,0,0,381.5,50.3Z"></path>
            <path class="cls-1 QWfqBTWJ_8" d="M443.4,69.3l-3.7,4.8-6.3,8.2c-1.6,2.1-3.6,4.1-5.3,6.2a72.7,72.7,0,0,1-5.3,7.1,29.4,29.4,0,0,1-7.4,6.1,7.4,7.4,0,0,1-6,.6,15.4,15.4,0,0,1-7.7-5.1,4.2,4.2,0,0,1-1.3-2.2,16.4,16.4,0,0,1-.2-2.3,12.7,12.7,0,0,1,.6-3.9c.2-1.6.9-3,1.1-4.5s.7-3.2,1-4.7a31,31,0,0,1,.2-4.3,24.8,24.8,0,0,1,1.3-3,13.6,13.6,0,0,0-1.1,2,17.1,17.1,0,0,1-.9,2.7c-.4,1-.5,1.8-.8,2.7a9.4,9.4,0,0,0-1.1,3.2c-.1,1.1,0,2.1-.1,3.2a14.7,14.7,0,0,0-.5,2.9,13,13,0,0,0,.3,1.3c0,.5-.3,1.1-.3,1.6s.3,2.2.4,3.3c-1.9-3.3-1.5-6.5-1-10.1s1.1-6.9,1.9-10.3a48.6,48.6,0,0,1,9.2-19.3c3.6-4.8,8.4-8.4,14.8-7.2a10.3,10.3,0,0,1,6.4,3.5c1.7,2.2,1.6,5,.7,7.6-1.5,4.6-5.4,8.2-9,11.3a34.3,34.3,0,0,1-4.9,3.6,25.9,25.9,0,0,1-3.8,1.7l-2,.7c-.8.2-.9.1-1.3.8s-.2,2.4-.4,3.5-.6,3-1,4.5-1.5,6.4-.8,9.4c1.3,6,11.1-3.3,12.9-4.9s2.2-2.3,3.3-3.3,1.3-1.3,1.8-2a4.1,4.1,0,0,0,.2-.9,73.8,73.8,0,0,1,5-6.4c2.2-2.5,4-5.1,6-7.8s3.6-5.8,5.4-2.7v.2c.2.1.2.1.2,0A1.9,1.9,0,0,1,443.4,69.3Zm-30.2,2.8a33.2,33.2,0,0,0,9.9-7.9l2-2.6c.3-.5.9-.9,1.1-1.6s-.1-1.1,0-1.8l.5-2.4c.1-1.2-.3-4.3-2.1-3.9a4.8,4.8,0,0,0-2.1,1.9l-2.1,2.8c-2.5,3.6-3.8,7.6-5.6,11.4v.3C414.1,69.5,413.8,70.8,413.2,72.1Z"></path>
            <path class="cls-1 QWfqBTWJ_9" d="M559,12.8c-2.1.5-4.9.2-6.9.9-.1,0-.5.7-.8.9l-1.5.4-4.5.9-8.4,1.4c-2,.2-5.4-.4-6.5,1.7a9.9,9.9,0,0,0-.2,1.8,22.4,22.4,0,0,1-2.2,4l-4.4,8.9c-2.2,4.1-3.8,8.6-5.7,12.8-1,2.5-2.4,4.9-3.1,7.5a37.3,37.3,0,0,1-1.7,6.1c-3.8,9.4-8.4,18.7-11.9,28.3-2.6,6.8-7.8,21.2-17.3,20.3-5.3-.4-9.6-4.1-12.1-8.8A32.2,32.2,0,0,1,468.3,87c0-.8-.1-2.2.4-2.8s3.4,1.2,4.3,2.3c2.8,4,5.3,8.9,9.2,12,1.9,1.4,2.4,1.5,3.8-.3,2.9-3.7,4.9-8.6,6.3-13.1,3.7-10.9,7.9-21.7,12.1-32.5s8-21.7,13.2-32.2c-2,.4-4,.6-6,.9s-2.6.8-4.1,1.1-5.2.7-7.8,1.1-5.8.7-8.8-.1-7.4-4.8-3.3-7a12.6,12.6,0,0,1,4.5-1A161.7,161.7,0,0,1,508.9,13a47.6,47.6,0,0,0,6.6-.9,14.5,14.5,0,0,1,3.5-.7c1.1-.1,3.1.1,4-.5s1.5-2.8,2.3-3.7,5.1-1.6,7.1-1,2.6,1.7,4,3-.4.4.7.8a5.3,5.3,0,0,0,2.2-.3l4.2-.2c5.7-.2,11.3-.3,17,0l1.8.2c.3-.1.4-.8,1-.7a1.3,1.3,0,0,1,1,1.1C564.6,12.2,560.3,12.6,559,12.8Zm-31.4,7.6c-2.6,3.9-6.5,9.5-8.2,13.8s-7.2,18.5-9.6,24.5c2.3-5,8-18.2,9.8-21.4C522.4,31.9,524.5,25.8,527.6,20.4Z"></path>
            <path class="cls-1 QWfqBTWJ_10" d="M564.7,69.3,561,74.1l-6.3,8.2c-1.6,2.1-3.6,4.1-5.3,6.2a72.7,72.7,0,0,1-5.3,7.1,31.3,31.3,0,0,1-7.4,6.1,7.4,7.4,0,0,1-6,.6,15.4,15.4,0,0,1-7.7-5.1,4.2,4.2,0,0,1-1.3-2.2,16.4,16.4,0,0,1-.2-2.3c-.2-1.5.3-2.5.6-3.9s.9-3,1.1-4.5.7-3.2,1-4.7-.2-2.9.2-4.3a24.8,24.8,0,0,1,1.3-3,13.6,13.6,0,0,0-1.1,2l-.9,2.7c-.4,1-.5,1.8-.8,2.7a9.4,9.4,0,0,0-1.1,3.2c-.1,1.1,0,2.1-.1,3.2a14.7,14.7,0,0,0-.5,2.9,13,13,0,0,0,.3,1.3c0,.5-.3,1.1-.3,1.6s.3,2.2.4,3.3c-1.9-3.3-1.5-6.5-1-10.1s1.1-6.9,1.9-10.3a47.2,47.2,0,0,1,9.2-19.3c3.6-4.8,8.4-8.4,14.8-7.2a10.3,10.3,0,0,1,6.4,3.5c1.7,2.2,1.6,5,.7,7.6-1.5,4.6-5.4,8.2-9,11.3a34.3,34.3,0,0,1-4.9,3.6,25.9,25.9,0,0,1-3.8,1.7l-2,.7c-.8.2-.9.1-1.3.8s-.2,2.4-.4,3.5-.6,3-1,4.5-1.5,6.4-.8,9.4c1.3,6,11.1-3.3,12.9-4.9s2.2-2.3,3.3-3.3,1.3-1.3,1.8-2a4.1,4.1,0,0,0,.2-.9,73.8,73.8,0,0,1,5-6.4c2.2-2.5,4-5.1,6-7.8s3.6-5.8,5.4-2.7v.2c.2.1.2.1.2,0A1.9,1.9,0,0,1,564.7,69.3Zm-30.2,2.8a33.2,33.2,0,0,0,9.9-7.9l2-2.6c.3-.5.9-.9,1.1-1.6s-.1-1.1,0-1.8l.5-2.4c.1-1.2-.3-4.3-2.1-3.9a4.8,4.8,0,0,0-2.1,1.9l-2.1,2.8c-2.5,3.6-3.8,7.6-5.6,11.4v.3C535.4,69.5,535.1,70.8,534.5,72.1Z"></path>
            <path class="cls-1 QWfqBTWJ_11" d="M613.2,75.4a103,103,0,0,1-5.2,9.9,91.9,91.9,0,0,1-7,9.9c-2.2,2.7-5.1,6.1-8.6,6.7s-7.2-2.6-8.5-6.1c-2.8-6.9-.8-14.2,1.3-20.9,0,0,0-1,.1-1.9-1.1,1.8-2.8,3.9-3.8,5.6s-2.5,4.4-4,6.5-10.4,12.7-11.6,10.7c0,0,1.4-.6,1.2-.8a6,6,0,0,1-4.9.7c.4.2.6.4.5.4-2.7.3-4.8-3.9-5.4-5.8a22,22,0,0,1-.1-10.2A55.6,55.6,0,0,1,565.3,60a17.4,17.4,0,0,1,3.6-4.1c.9-.8,1.8-.9,2.8-1.6s3.3-2.9,5.9-2.9c5.7,0,8.1,6.6,9.3,11.1,2.8-3.7,7.8-8.5,12.2-3.2,2.3,2.8.8,4.9-.5,7.5a54.3,54.3,0,0,0-4.9,13.4c.1-.3.5-2.1.9-2.2s-7.5,26.3,4.6,11.4c3.6-4.6,6.8-9.4,10-14.2,1.4-2.3,2.8-4.6,4.3-6.9s2.8-3.1,3-.5S614.1,73.2,613.2,75.4Zm-29.9-8.7c0-.9-2.3-7.4-1.7-7.9a35.8,35.8,0,0,1,1.3,3.6c-.4-1.5-.8-5.8-3-5.8-3.8,0-6.8,7.2-8.1,9.9a73.3,73.3,0,0,0-5.4,16.6c.4-1.7,7.2-23,9.3-22.9-1.6.4-7.9,18.5-8.2,20.1s-2.1,7.1-.4,7.7,4-3.3,4.6-4.2a103.4,103.4,0,0,0,6.4-8.4l3-4.4,1.7-2.4A2.9,2.9,0,0,0,583.3,66.7Zm.4-.8v1.2A.8.8,0,0,0,583.7,65.9Zm2.8,5.6-.6.8c-.1.4-.4,2-.4,2Z"></path>
            <path class="cls-1 QWfqBTWJ_12" d="M675.3,77c-2.9,4.3-5.9,8.6-9.2,12.6s-6.3,8.5-10.4,8.6c-.8.1-5.8-1.6-5.5-2.5h.1c-.3-.1-.3-.3-.4-.6s-1.6-1.4-1.9-2a12.6,12.6,0,0,1-1.2-4.2,39.4,39.4,0,0,1-.4-6.8,20.6,20.6,0,0,1,1.2-7c.1-.5,2.2-7.1,2.9-7s-.3,1-.1,1.1.8-2.4,1.3-3.7a1.2,1.2,0,0,1-.5.7c-.1-.1,3.2-8.1,3.8-9.3-3.9,3.6-5.9,8.6-9.8,12.4s-4.3,7.2-6.3,10.5-3.2,7-6.9,3.4a6,6,0,0,1-1.9-3.7,16.3,16.3,0,0,1,.8-4.4c.4-1.3,0-1.8.1-3.2.5-4.2,3.2-8.4,4.7-12.3.4-1.3,4.1-8.5,2.3-8.6-.3-.1-2,2.3-2.4,2.7a64,64,0,0,0-4,5.1c-3.9,6-6.3,12-9.6,18.3-1.3,2.4-2.4,4.9-3.5,7.2s-1.3,2.3-1.7,3.4a7.8,7.8,0,0,1-.2,1.6c-1.2,2.1-5.8-1-7-2.4s-1.5-5.6-1.6-8.9,1.4-8.6,2.8-12.7a37.5,37.5,0,0,1,2.4-6,24.9,24.9,0,0,0,2-3.2c.3-.5-.1-1.1.9-1.6s2,.4,2.7.9a34.2,34.2,0,0,1,2.1,3.1c.6.8,1.8,1.4,1.3,3s-.2.5-.3.8-1.8,2.2-2.6,3.4a3.9,3.9,0,0,0-1.1,1.7c-.2.8,0,1.2-.2,2s-1.3,3.1-1.7,4.7a22.9,22.9,0,0,0-.7,3.4c0,1.2.5,2.1.3,3.4,1.7-2.8,2.6-6.3,4.2-9.4s3.8-7.7,6-11.4,4.1-5.7,6-8.8,4.1-6,7.1-6.3,7.6,4.6,6.6,8.3-2.6,5.9-3.6,8.7-2.6,8.4-3.8,12.5a70.4,70.4,0,0,1,5.1-8.7L641.1,69c-.1-.8,9.7-13.5,10.8-14.6,3.2-3.1,9.9-6.4,11.7.1s-1.5,12.2-3.5,17.2-4.5,9.8-5.5,14.3a1.8,1.8,0,0,1,.5-.7s-.8,5.6.2,5.8,6.8-5.8,8.1-7.3c3.2-3.5,6.3-7.2,9.3-10.9.6-.7,5.8-7.7,6.6-5.1.1.2,0,.1,0,.1C680,70.9,676.8,74.8,675.3,77ZM637.2,60h0c.8-1.7,2.9-7.3,2.2-8.9.4,1.9-2.4,9.2-2.9,10.1-1.1,2.7-2.5,5.4-3.5,8.2a27.8,27.8,0,0,0-1.6,8.2c.2-2.5,1.4-5.4,2.3-7.7s1.9-6.6,3.3-9.5l.2-.4h0Z"></path>
        </g>
    </g>
    <style data-made-with="vivus-instant">
        .QWfqBTWJ_0 {
            stroke-dasharray: 621 623;
            stroke-dashoffset: 622;
            animation: QWfqBTWJ_draw_0 7200ms linear 0ms infinite, QWfqBTWJ_fade 7200ms linear 0ms infinite;
        }

        .QWfqBTWJ_1 {
            stroke-dasharray: 334 336;
            stroke-dashoffset: 335;
            animation: QWfqBTWJ_draw_1 7200ms linear 0ms infinite, QWfqBTWJ_fade 7200ms linear 0ms infinite;
        }

        .QWfqBTWJ_2 {
            stroke-dasharray: 257 259;
            stroke-dashoffset: 258;
            animation: QWfqBTWJ_draw_2 7200ms linear 0ms infinite, QWfqBTWJ_fade 7200ms linear 0ms infinite;
        }

        .QWfqBTWJ_3 {
            stroke-dasharray: 332 334;
            stroke-dashoffset: 333;
            animation: QWfqBTWJ_draw_3 7200ms linear 0ms infinite, QWfqBTWJ_fade 7200ms linear 0ms infinite;
        }

        .QWfqBTWJ_4 {
            stroke-dasharray: 635 637;
            stroke-dashoffset: 636;
            animation: QWfqBTWJ_draw_4 7200ms linear 0ms infinite, QWfqBTWJ_fade 7200ms linear 0ms infinite;
        }

        .QWfqBTWJ_5 {
            stroke-dasharray: 423 425;
            stroke-dashoffset: 424;
            animation: QWfqBTWJ_draw_5 7200ms linear 0ms infinite, QWfqBTWJ_fade 7200ms linear 0ms infinite;
        }

        .QWfqBTWJ_6 {
            stroke-dasharray: 347 349;
            stroke-dashoffset: 348;
            animation: QWfqBTWJ_draw_6 7200ms linear 0ms infinite, QWfqBTWJ_fade 7200ms linear 0ms infinite;
        }

        .QWfqBTWJ_7 {
            stroke-dasharray: 332 334;
            stroke-dashoffset: 333;
            animation: QWfqBTWJ_draw_7 7200ms linear 0ms infinite, QWfqBTWJ_fade 7200ms linear 0ms infinite;
        }

        .QWfqBTWJ_8 {
            stroke-dasharray: 334 336;
            stroke-dashoffset: 335;
            animation: QWfqBTWJ_draw_8 7200ms linear 0ms infinite, QWfqBTWJ_fade 7200ms linear 0ms infinite;
        }

        .QWfqBTWJ_9 {
            stroke-dasharray: 486 488;
            stroke-dashoffset: 487;
            animation: QWfqBTWJ_draw_9 7200ms linear 0ms infinite, QWfqBTWJ_fade 7200ms linear 0ms infinite;
        }

        .QWfqBTWJ_10 {
            stroke-dasharray: 334 336;
            stroke-dashoffset: 335;
            animation: QWfqBTWJ_draw_10 7200ms linear 0ms infinite, QWfqBTWJ_fade 7200ms linear 0ms infinite;
        }

        .QWfqBTWJ_11 {
            stroke-dasharray: 423 425;
            stroke-dashoffset: 424;
            animation: QWfqBTWJ_draw_11 7200ms linear 0ms infinite, QWfqBTWJ_fade 7200ms linear 0ms infinite;
        }

        .QWfqBTWJ_12 {
            stroke-dasharray: 539 541;
            stroke-dashoffset: 540;
            animation: QWfqBTWJ_draw_12 7200ms linear 0ms infinite, QWfqBTWJ_fade 7200ms linear 0ms infinite;
        }

        @keyframes QWfqBTWJ_draw {
            100% {
                stroke-dashoffset: 0;
            }
        }

        @keyframes QWfqBTWJ_fade {
            0% {
                stroke-opacity: 1;
            }

            94.44444444444444% {
                stroke-opacity: 1;
            }

            100% {
                stroke-opacity: 0;
            }
        }

        @keyframes QWfqBTWJ_draw_0 {
            11.11111111111111% {
                stroke-dashoffset: 622
            }

            15.901622509755594% {
                stroke-dashoffset: 0;
            }

            100% {
                stroke-dashoffset: 0;
            }
        }

        @keyframes QWfqBTWJ_draw_1 {
            15.901622509755594% {
                stroke-dashoffset: 335
            }

            18.48172109262682% {
                stroke-dashoffset: 0;
            }

            100% {
                stroke-dashoffset: 0;
            }
        }

        @keyframes QWfqBTWJ_draw_2 {
            18.481721092626824% {
                stroke-dashoffset: 258
            }

            20.468782090778394% {
                stroke-dashoffset: 0;
            }

            100% {
                stroke-dashoffset: 0;
            }
        }

        @keyframes QWfqBTWJ_draw_3 {
            20.468782090778394% {
                stroke-dashoffset: 333
            }

            23.033477100020537% {
                stroke-dashoffset: 0;
            }

            100% {
                stroke-dashoffset: 0;
            }
        }

        @keyframes QWfqBTWJ_draw_4 {
            23.033477100020537% {
                stroke-dashoffset: 636
            }

            27.931813514068594% {
                stroke-dashoffset: 0;
            }

            100% {
                stroke-dashoffset: 0;
            }
        }

        @keyframes QWfqBTWJ_draw_5 {
            27.931813514068597% {
                stroke-dashoffset: 424
            }

            31.19737112343397% {
                stroke-dashoffset: 0;
            }

            100% {
                stroke-dashoffset: 0;
            }
        }

        @keyframes QWfqBTWJ_draw_6 {
            31.19737112343397% {
                stroke-dashoffset: 348
            }

            33.87759293489423% {
                stroke-dashoffset: 0;
            }

            100% {
                stroke-dashoffset: 0;
            }
        }

        @keyframes QWfqBTWJ_draw_7 {
            33.87759293489423% {
                stroke-dashoffset: 333
            }

            36.44228794413637% {
                stroke-dashoffset: 0;
            }

            100% {
                stroke-dashoffset: 0;
            }
        }

        @keyframes QWfqBTWJ_draw_8 {
            36.44228794413637% {
                stroke-dashoffset: 335
            }

            39.0223865270076% {
                stroke-dashoffset: 0;
            }

            100% {
                stroke-dashoffset: 0;
            }
        }

        @keyframes QWfqBTWJ_draw_9 {
            39.0223865270076% {
                stroke-dashoffset: 487
            }

            42.773156705689054% {
                stroke-dashoffset: 0;
            }

            100% {
                stroke-dashoffset: 0;
            }
        }

        @keyframes QWfqBTWJ_draw_10 {
            42.77315670568906% {
                stroke-dashoffset: 335
            }

            45.35325528856028% {
                stroke-dashoffset: 0;
            }

            100% {
                stroke-dashoffset: 0;
            }
        }

        @keyframes QWfqBTWJ_draw_11 {
            45.35325528856028% {
                stroke-dashoffset: 424
            }

            48.61881289792566% {
                stroke-dashoffset: 0;
            }

            100% {
                stroke-dashoffset: 0;
            }
        }

        @keyframes QWfqBTWJ_draw_12 {
            48.61881289792565% {
                stroke-dashoffset: 540
            }

            52.77777777777778% {
                stroke-dashoffset: 0;
            }

            100% {
                stroke-dashoffset: 0;
            }
        }

    </style>
</svg>
